<?xml version="1.0" encoding="UTF-8" standalone="no"?>
<!-- Creator: CorelDRAW 2017 -->

<svg
   xmlns:dc="http://purl.org/dc/elements/1.1/"
   xmlns:cc="http://creativecommons.org/ns#"
   xmlns:rdf="http://www.w3.org/1999/02/22-rdf-syntax-ns#"
   xmlns:svg="http://www.w3.org/2000/svg"
   xmlns="http://www.w3.org/2000/svg"
   xmlns:sodipodi="http://sodipodi.sourceforge.net/DTD/sodipodi-0.dtd"
   xmlns:inkscape="http://www.inkscape.org/namespaces/inkscape"
   xml:space="preserve"
   width="854.54785"
   height="293.67999"
   version="1.1"
   style="clip-rule:evenodd;fill-rule:evenodd;image-rendering:optimizeQuality;shape-rendering:geometricPrecision;text-rendering:geometricPrecision"
   viewBox="0 0 854.54785 293.67999"
   id="svg129"
   sodipodi:docname="siepe-logo.svg"
   inkscape:version="0.92.3 (2405546, 2018-03-11)"><metadata
   id="metadata133"><rdf:RDF><cc:Work
       rdf:about=""><dc:format>image/svg+xml</dc:format><dc:type
         rdf:resource="http://purl.org/dc/dcmitype/StillImage" /><dc:title></dc:title></cc:Work></rdf:RDF></metadata><sodipodi:namedview
   pagecolor="#ffffff"
   bordercolor="#666666"
   borderopacity="1"
   objecttolerance="10"
   gridtolerance="10"
   guidetolerance="10"
   inkscape:pageopacity="0"
   inkscape:pageshadow="2"
   inkscape:window-width="1920"
   inkscape:window-height="1025"
   id="namedview131"
   showgrid="false"
   showguides="true"
   inkscape:guide-bbox="true"
   fit-margin-top="0"
   fit-margin-left="0"
   fit-margin-right="0"
   fit-margin-bottom="0"
   inkscape:zoom="1.2833988"
   inkscape:cx="595.40671"
   inkscape:cy="196.70005"
   inkscape:window-x="0"
   inkscape:window-y="0"
   inkscape:window-maximized="1"
   inkscape:current-layer="svg129" />
 <defs
   id="defs4">
  <style
   type="text/css"
   id="style2">
   <![CDATA[
    .fil10 {fill:none}
    .fil4 {fill:#246890}
    .fil7 {fill:#5B5789}
    .fil2 {fill:#EE9545}
    .fil9 {fill:#FEFEFE}
    .fil6 {fill:#25638D;fill-rule:nonzero}
    .fil5 {fill:#39759A;fill-rule:nonzero}
    .fil0 {fill:#3C3F40;fill-rule:nonzero}
    .fil8 {fill:#4F5083;fill-rule:nonzero}
    .fil1 {fill:#717476;fill-rule:nonzero}
    .fil3 {fill:#E28B43;fill-rule:nonzero}
   ]]>
  </style>
 
  
  
  
 
   
   
   
   
   
   
   
   
   
   
   
   
   
   
   
   
   
   
   
   
   
   
   
   
   
   
   
   
   
   
   
   
   
   
   
   
   
   
   
   
   
   
   
   
   
   
   
   
   
   
   
   
   
   
   
   
   
   
   
  </defs>
 <path
   class="fil0"
   d="m 366.98479,66.58 c -4.4,0 -7.1,4.19 -7.1,9.18 0,4.99 2.9,9.3 7.3,9.3 4.41,0 7.11,-4.2 7.11,-9.19 0,-4.99 -2.9,-9.29 -7.31,-9.29 z m 0,26.64 c -8.8,0 -15.31,-7.6 -15.31,-17.35 0,-9.75 6.71,-17.46 15.51,-17.46 8.81,0 15.32,7.6 15.32,17.35 0,9.75 -6.71,17.46 -15.52,17.46 z"
   id="path19"
   inkscape:connector-curvature="0"
   style="fill:#3c3f40;fill-rule:nonzero"
   sodipodi:nodetypes="ssssssssss" /><path
   class="fil0"
   d="m 465.35479,86.95 c -3.72,-5.89 -13.93,-11.49 -25.7,-11.49 -15.17,0 -22.45,6.04 -22.45,13.7 0,8.99 11.15,11.49 24.15,12.96 22.61,2.65 43.66,8.25 43.66,32.85 0,22.98 -21.36,32.85 -45.52,32.85 -22.13,0 -39.16,-6.48 -47.21,-25.34 l 17.03,-8.39 c 4.8,11.34 17.33,16.35 30.49,16.35 12.85,0 24.93,-4.27 24.93,-15.47 0,-9.72 -10.68,-13.7 -25.08,-15.17 -22.14,-2.51 -42.57,-8.1 -42.57,-31.23 0,-21.21 21.98,-29.9 41.95,-30.05 16.87,0 34.37,4.57 42.58,20.48 z"
   id="path9"
   inkscape:connector-curvature="0"
   style="fill:#3c3f40;fill-rule:nonzero" /><polygon
   class="fil0"
   points="453.98,60.31 453.98,165.49 474.26,165.49 474.26,60.31 "
   id="polygon11"
   style="fill:#3c3f40;fill-rule:nonzero"
   transform="translate(43.10479,-0.31999999)" /><polygon
   class="fil0"
   points="568.23,103.74 568.23,122.22 509.56,122.22 509.56,145.96 570.4,145.96 570.4,165.49 489.28,165.49 489.28,60.31 570.4,60.31 570.4,79.55 509.56,79.55 509.56,103.74 "
   id="polygon13"
   style="fill:#3c3f40;fill-rule:nonzero"
   transform="translate(43.10479,-0.31999999)" /><path
   class="fil0"
   d="m 645.85479,116.04 h 30.66 c 26.16,0 26.01,-37.27 0,-37.27 h -30.66 z m 30.66,18.18 h -30.66 v 30.95 h -20.43 V 59.99 c 17.03,0 34.06,-0.15 51.09,-0.15 52.94,0 53.1,74.38 0,74.38 z"
   id="path15"
   inkscape:connector-curvature="0"
   style="fill:#3c3f40;fill-rule:nonzero" /><polygon
   class="fil0"
   points="761.74,103.74 761.74,122.22 703.07,122.22 703.07,145.96 763.91,145.96 763.91,165.49 682.79,165.49 682.79,60.31 763.91,60.31 763.91,79.55 703.07,79.55 703.07,103.74 "
   id="polygon17"
   style="fill:#3c3f40;fill-rule:nonzero"
   transform="translate(43.10479,-0.31999999)" /><path
   class="fil1"
   d="m 291.53,190.32 c -0.9,-1.43 -3.37,-2.79 -6.22,-2.79 -3.67,0 -5.43,1.47 -5.43,3.32 0,2.18 2.69,2.78 5.84,3.14 5.47,0.64 10.57,2 10.57,7.95 0,5.56 -5.17,7.96 -11.02,7.96 -5.36,0 -9.48,-1.57 -11.43,-6.14 l 4.12,-2.03 c 1.16,2.74 4.2,3.96 7.39,3.96 3.11,0 6.03,-1.04 6.03,-3.75 0,-2.35 -2.59,-3.32 -6.07,-3.67 -5.36,-0.61 -10.31,-1.96 -10.31,-7.56 0,-5.14 5.33,-7.24 10.16,-7.28 4.08,0 8.32,1.11 10.31,4.96 z"
   id="path21"
   inkscape:connector-curvature="0"
   style="fill:#717476;fill-rule:nonzero" /><path
   class="fil1"
   d="m 313.98,198.41 c -0.3,-2.28 -2.17,-3.42 -4.8,-3.42 -2.47,0 -4.5,1.14 -5.17,3.42 z m -10.05,3.6 c 0.31,2.18 2.29,3.75 5.51,3.75 1.69,0 3.9,-0.61 4.95,-1.64 l 2.92,2.74 c -1.94,1.93 -5.13,2.86 -7.94,2.86 -6.37,0 -10.16,-3.75 -10.16,-9.38 0,-5.35 3.83,-9.2 9.82,-9.2 6.18,0 10.05,3.63 9.33,10.87 z"
   id="path23"
   inkscape:connector-curvature="0"
   style="fill:#717476;fill-rule:nonzero" /><path
   class="fil1"
   d="m 332.87,209.25 v -9.41 c 0,-2.32 -1.28,-4.42 -3.79,-4.42 -2.47,0 -3.93,2.1 -3.93,4.42 v 9.41 h -4.58 v -17.62 h 4.24 l 0.34,2.14 c 0.97,-1.78 3.11,-2.42 4.87,-2.42 2.21,0 4.42,0.86 5.47,3.28 1.65,-2.49 3.79,-3.21 6.19,-3.21 5.24,0 7.83,3.07 7.83,8.35 v 9.48 h -4.57 v -9.48 c 0,-2.32 -1.01,-4.28 -3.49,-4.28 -2.47,0 -4.01,2.03 -4.01,4.35 v 9.41 z"
   id="path25"
   inkscape:connector-curvature="0"
   style="fill:#717476;fill-rule:nonzero" /><path
   class="fil1"
   d="m 353.22,209.25 h 4.57 V 191.6 h -4.57 z m 4.98,-22.54 c 0,3.39 -5.4,3.39 -5.4,0 0,-3.38 5.4,-3.38 5.4,0 z"
   id="path27"
   inkscape:connector-curvature="0"
   style="fill:#717476;fill-rule:nonzero" /><path
   class="fil1"
   d="m 374.58,209.25 v -9.2 c 0,-2.67 -1.54,-4.71 -4.46,-4.71 -2.81,0 -4.72,2.25 -4.72,4.93 v 8.98 h -4.54 v -17.62 h 4.09 l 0.3,2.39 c 1.87,-1.74 3.74,-2.63 6.07,-2.63 4.35,0 7.83,3.1 7.83,8.62 v 9.24 z"
   id="path29"
   inkscape:connector-curvature="0"
   style="fill:#717476;fill-rule:nonzero" /><path
   class="fil1"
   d="m 396.39,183.93 h -5.4 l -2.77,4.85 V 189 h 4.05 l 4.12,-4.89 z m -5.21,11.2 c -3.04,0 -5.47,1.96 -5.47,5.31 0,3.36 2.43,5.35 5.47,5.35 7.2,0 7.2,-10.66 0,-10.66 z m 5.47,-1.03 0.15,-2.43 h 4.39 v 17.58 h -4.31 l -0.23,-2.56 c -1.05,2.06 -3.93,3.06 -6,3.1 -5.47,0.03 -9.51,-3.18 -9.51,-9.35 0,-6.06 4.23,-9.23 9.63,-9.2 2.47,0 4.83,1.11 5.88,2.86 z"
   id="path31"
   inkscape:connector-curvature="0"
   style="fill:#717476;fill-rule:nonzero" /><path
   class="fil1"
   d="m 408.34,191.67 0.34,2.03 c 1.43,-2.17 3.34,-2.49 5.21,-2.49 1.91,0 3.75,0.71 4.76,1.67 l -2.06,3.78 c -0.94,-0.75 -1.8,-1.14 -3.3,-1.14 -2.4,0 -4.61,1.22 -4.61,4.46 v 9.27 h -4.57 v -17.58 z"
   id="path33"
   inkscape:connector-curvature="0"
   style="fill:#717476;fill-rule:nonzero" /><path
   class="fil1"
   d="m 419.44,209.25 h 4.57 V 191.6 h -4.57 z m 4.98,-22.54 c 0,3.39 -5.4,3.39 -5.4,0 0,-3.38 5.4,-3.38 5.4,0 z"
   id="path35"
   inkscape:connector-curvature="0"
   style="fill:#717476;fill-rule:nonzero" /><path
   class="fil1"
   d="m 431.32,200.48 c 0,2.67 1.68,5.17 5.02,5.17 3.33,0 5.02,-2.5 5.02,-5.17 0,-2.64 -1.95,-5.21 -5.02,-5.21 -3.3,0 -5.02,2.57 -5.02,5.21 z m 14.65,0 c 0,5.06 -3.63,9.16 -9.63,9.16 -6,0 -9.6,-4.1 -9.6,-9.16 0,-5.03 3.68,-9.17 9.56,-9.17 5.89,0 9.67,4.14 9.67,9.17 z"
   id="path37"
   inkscape:connector-curvature="0"
   style="fill:#717476;fill-rule:nonzero" /><polygon
   class="fil1"
   points="459.64,184.61 454.73,184.61 454.73,209.57 459.64,209.57 "
   id="polygon39"
   style="fill:#717476;fill-rule:nonzero"
   transform="translate(0.46000001,-0.31999999)" /><path
   class="fil1"
   d="m 477.07,209.25 v -9.2 c 0,-2.67 -1.53,-4.71 -4.46,-4.71 -2.81,0 -4.72,2.25 -4.72,4.93 v 8.98 h -4.53 v -17.62 h 4.08 l 0.3,2.39 c 1.88,-1.74 3.75,-2.63 6.07,-2.63 4.35,0 7.84,3.1 7.84,8.62 v 9.24 z"
   id="path41"
   inkscape:connector-curvature="0"
   style="fill:#717476;fill-rule:nonzero" /><path
   class="fil1"
   d="m 490.3,186.71 v 5 h 5.1 v 3.74 h -5.13 v 7.6 c 0,1.67 0.97,2.49 2.4,2.49 0.71,0 1.53,-0.21 2.21,-0.53 l 1.27,3.71 c -1.31,0.5 -2.4,0.71 -3.78,0.75 -4.01,0.14 -6.64,-2.04 -6.64,-6.42 v -7.6 h -3.45 v -3.74 h 3.45 v -4.53 z"
   id="path43"
   inkscape:connector-curvature="0"
   style="fill:#717476;fill-rule:nonzero" /><path
   class="fil1"
   d="m 511.82,198.41 c -0.3,-2.28 -2.18,-3.42 -4.8,-3.42 -2.48,0 -4.5,1.14 -5.17,3.42 z m -10.05,3.6 c 0.3,2.18 2.29,3.75 5.51,3.75 1.69,0 3.9,-0.61 4.95,-1.64 l 2.92,2.74 c -1.95,1.93 -5.13,2.86 -7.94,2.86 -6.37,0 -10.16,-3.75 -10.16,-9.38 0,-5.35 3.82,-9.2 9.82,-9.2 6.18,0 10.04,3.63 9.33,10.87 z"
   id="path45"
   inkscape:connector-curvature="0"
   style="fill:#717476;fill-rule:nonzero" /><path
   class="fil1"
   d="m 522.38,200.02 c 0,3.06 2.18,4.88 4.84,4.88 2.62,0 4.8,-1.85 4.8,-4.88 0,-3.04 -2.18,-4.96 -4.8,-4.96 -2.66,0 -4.84,1.89 -4.84,4.96 z m 10.91,-10.13 3.37,2.42 -2.06,2.5 c 1.43,1.53 1.95,3.28 1.95,5.21 0,2.17 -0.86,5.24 -3.9,6.56 3.08,1.46 3.83,3.56 3.83,5.81 0,4.85 -3.9,7.85 -9.26,7.85 -5.36,0 -9.37,-3.11 -9.37,-7.85 h 4.53 c 0,2.28 2.22,3.78 4.84,3.78 2.62,0 4.68,-1.35 4.68,-3.78 0,-2.42 -2.4,-3.53 -4.68,-3.53 -5.77,0 -9.37,-3.35 -9.37,-8.84 0,-5.5 4.2,-8.92 9.37,-8.92 1.46,0 2.96,0.18 4.23,1 z"
   id="path47"
   inkscape:connector-curvature="0"
   style="fill:#717476;fill-rule:nonzero" /><path
   class="fil1"
   d="m 542.77,191.67 0.34,2.03 c 1.42,-2.17 3.33,-2.49 5.21,-2.49 1.91,0 3.75,0.71 4.76,1.67 l -2.06,3.78 c -0.94,-0.75 -1.8,-1.14 -3.3,-1.14 -2.4,0 -4.61,1.22 -4.61,4.46 v 9.27 h -4.57 v -17.58 z"
   id="path49"
   inkscape:connector-curvature="0"
   style="fill:#717476;fill-rule:nonzero" /><path
   class="fil1"
   d="m 557.42,200.44 c 0,3.36 2.44,5.35 5.47,5.35 7.2,0 7.2,-10.66 0,-10.66 -3.03,0 -5.47,1.96 -5.47,5.31 z m 11.1,-8.77 h 4.38 v 17.58 h -4.31 l -0.22,-2.56 c -1.05,2.06 -3.94,3.06 -6,3.1 -5.47,0.03 -9.52,-3.18 -9.52,-9.35 0,-6.06 4.24,-9.23 9.63,-9.2 2.48,0 4.84,1.11 5.89,2.86 z"
   id="path51"
   inkscape:connector-curvature="0"
   style="fill:#717476;fill-rule:nonzero" /><path
   class="fil1"
   d="m 579.53,200.44 c 0,3.07 2.33,5.18 5.25,5.18 2.89,0 5.36,-2 5.36,-5.18 0,-3.06 -2.47,-5.13 -5.36,-5.13 -2.92,0 -5.25,1.96 -5.25,5.13 z m 15.48,-16.12 v 24.93 h -4.27 l -0.3,-2.42 c -1.42,2.1 -3.71,2.81 -5.96,2.81 -5.43,0 -9.52,-3.42 -9.52,-9.2 0,-6.06 4.01,-9.2 9.41,-9.2 1.95,0 4.98,1 6.07,2.82 v -9.74 z"
   id="path53"
   inkscape:connector-curvature="0"
   style="fill:#717476;fill-rule:nonzero" /><path
   class="fil1"
   d="m 601.76,200.48 c 0,2.67 1.68,5.17 5.02,5.17 3.34,0 5.02,-2.5 5.02,-5.17 0,-2.64 -1.95,-5.21 -5.02,-5.21 -3.3,0 -5.02,2.57 -5.02,5.21 z m 14.65,0 c 0,5.06 -3.63,9.16 -9.63,9.16 -6,0 -9.6,-4.1 -9.6,-9.16 0,-5.03 3.68,-9.17 9.56,-9.17 5.89,0 9.67,4.14 9.67,9.17 z"
   id="path55"
   inkscape:connector-curvature="0"
   style="fill:#717476;fill-rule:nonzero" /><path
   class="fil1"
   d="m 628.96,200.44 c 0,3.07 2.33,5.18 5.25,5.18 2.89,0 5.36,-2 5.36,-5.18 0,-3.06 -2.47,-5.13 -5.36,-5.13 -2.92,0 -5.25,1.96 -5.25,5.13 z m 15.49,-16.12 v 24.93 h -4.28 l -0.3,-2.42 c -1.42,2.1 -3.71,2.81 -5.96,2.81 -5.43,0 -9.52,-3.42 -9.52,-9.2 0,-6.06 4.01,-9.2 9.41,-9.2 1.95,0 4.98,1 6.07,2.82 v -9.74 z"
   id="path57"
   inkscape:connector-curvature="0"
   style="fill:#717476;fill-rule:nonzero" /><path
   class="fil1"
   d="m 661.83,198.41 c -0.3,-2.28 -2.17,-3.42 -4.8,-3.42 -2.47,0 -4.49,1.14 -5.17,3.42 z m -10.04,3.6 c 0.3,2.18 2.28,3.75 5.51,3.75 1.68,0 3.89,-0.61 4.95,-1.64 l 2.92,2.74 c -1.95,1.93 -5.14,2.86 -7.95,2.86 -6.37,0 -10.15,-3.75 -10.15,-9.38 0,-5.35 3.82,-9.2 9.82,-9.2 6.18,0 10.04,3.63 9.33,10.87 z"
   id="path59"
   inkscape:connector-curvature="0"
   style="fill:#717476;fill-rule:nonzero" /><polygon
   class="fil1"
   points="279.72,231.16 293.92,231.16 293.92,235.55 279.72,235.55 279.72,241.19 294.44,241.19 294.44,245.82 274.8,245.82 274.8,220.86 294.44,220.86 294.44,225.42 279.72,225.42 "
   id="polygon61"
   style="fill:#717476;fill-rule:nonzero"
   transform="translate(0.46000001,-0.31999999)" /><path
   class="fil1"
   d="m 311.06,245.5 v -9.2 c 0,-2.67 -1.54,-4.71 -4.46,-4.71 -2.81,0 -4.73,2.25 -4.73,4.92 v 8.99 h -4.53 v -17.62 h 4.08 l 0.3,2.39 c 1.88,-1.74 3.75,-2.64 6.08,-2.64 4.34,0 7.83,3.11 7.83,8.63 v 9.24 z"
   id="path63"
   inkscape:connector-curvature="0"
   style="fill:#717476;fill-rule:nonzero" /><path
   class="fil1"
   d="m 330.69,232.59 c -1.31,-1.18 -2.81,-1.57 -4.57,-1.57 -2.17,0 -3.37,0.64 -3.37,1.75 0,1.14 1.08,1.78 3.45,1.93 3.48,0.21 7.9,0.96 7.9,5.63 0,3.1 -2.66,5.78 -7.94,5.78 -2.92,0 -5.85,-0.47 -8.55,-3.14 l 2.25,-3.1 c 1.31,1.39 4.31,2.42 6.37,2.46 1.73,0.03 3.34,-0.82 3.34,-2.11 0,-1.21 -1.05,-1.71 -3.67,-1.85 -3.49,-0.25 -7.65,-1.46 -7.65,-5.46 0,-4.06 4.42,-5.49 7.8,-5.49 2.88,0 5.06,0.54 7.19,2.32 z"
   id="path65"
   inkscape:connector-curvature="0"
   style="fill:#717476;fill-rule:nonzero" /><path
   class="fil1"
   d="m 336.09,245.5 h 4.57 v -17.65 h -4.57 z m 4.98,-22.54 c 0,3.39 -5.39,3.39 -5.39,0 0,-3.39 5.39,-3.39 5.39,0 z"
   id="path67"
   inkscape:connector-curvature="0"
   style="fill:#717476;fill-rule:nonzero" /><path
   class="fil1"
   d="m 357.45,245.5 v -9.2 c 0,-2.67 -1.54,-4.71 -4.46,-4.71 -2.81,0 -4.72,2.25 -4.72,4.92 v 8.99 h -4.54 v -17.62 h 4.09 l 0.3,2.39 c 1.87,-1.74 3.75,-2.64 6.07,-2.64 4.35,0 7.83,3.11 7.83,8.63 v 9.24 z"
   id="path69"
   inkscape:connector-curvature="0"
   style="fill:#717476;fill-rule:nonzero" /><path
   class="fil1"
   d="m 368.73,236.73 c 0,2.67 1.69,5.17 5.02,5.17 3.34,0 5.03,-2.5 5.03,-5.17 0,-2.64 -1.95,-5.21 -5.03,-5.21 -3.29,0 -5.02,2.57 -5.02,5.21 z m 14.66,0 c 0,5.06 -3.64,9.16 -9.64,9.16 -5.99,0 -9.59,-4.1 -9.59,-9.16 0,-5.03 3.67,-9.17 9.56,-9.17 5.88,0 9.67,4.14 9.67,9.17 z"
   id="path71"
   inkscape:connector-curvature="0"
   style="fill:#717476;fill-rule:nonzero" /><path
   class="fil1"
   d="m 389.34,249 h -2.58 l 0.71,-3.54 c -1.05,-0.17 -1.76,-0.81 -1.76,-1.92 0,-3.28 5.32,-3.14 5.32,0.11 0,0.42 0.04,0.32 -1.69,5.35 z"
   id="path73"
   inkscape:connector-curvature="0"
   style="fill:#717476;fill-rule:nonzero" /><path
   class="fil1"
   d="m 405.91,233.84 h 7.42 c 6.33,0 6.3,-8.85 0,-8.85 h -7.42 z m 7.42,4.31 h -7.42 v 7.35 h -4.95 v -24.96 c 4.12,0 8.25,-0.04 12.37,-0.04 12.82,0 12.85,17.65 0,17.65 z"
   id="path75"
   inkscape:connector-curvature="0"
   style="fill:#717476;fill-rule:nonzero" /><path
   class="fil1"
   d="m 438.18,234.66 c -0.3,-2.28 -2.18,-3.42 -4.8,-3.42 -2.48,0 -4.5,1.14 -5.17,3.42 z m -10.05,3.6 c 0.3,2.18 2.29,3.75 5.51,3.75 1.69,0 3.9,-0.61 4.95,-1.64 l 2.92,2.74 c -1.95,1.93 -5.13,2.86 -7.94,2.86 -6.38,0 -10.16,-3.75 -10.16,-9.39 0,-5.34 3.82,-9.19 9.82,-9.19 6.18,0 10.04,3.63 9.33,10.87 z"
   id="path77"
   inkscape:connector-curvature="0"
   style="fill:#717476;fill-rule:nonzero" /><path
   class="fil1"
   d="m 457.21,232.59 c -1.31,-1.18 -2.81,-1.57 -4.57,-1.57 -2.17,0 -3.37,0.64 -3.37,1.75 0,1.14 1.08,1.78 3.45,1.93 3.48,0.21 7.9,0.96 7.9,5.63 0,3.1 -2.66,5.78 -7.94,5.78 -2.92,0 -5.85,-0.47 -8.55,-3.14 l 2.25,-3.1 c 1.31,1.39 4.31,2.42 6.37,2.46 1.73,0.03 3.34,-0.82 3.34,-2.11 0,-1.21 -1.05,-1.71 -3.67,-1.85 -3.49,-0.25 -7.65,-1.46 -7.65,-5.46 0,-4.06 4.42,-5.49 7.8,-5.49 2.88,0 5.06,0.54 7.19,2.32 z"
   id="path79"
   inkscape:connector-curvature="0"
   style="fill:#717476;fill-rule:nonzero" /><path
   class="fil1"
   d="m 476.78,236.73 c 0,-2.75 -1.95,-4.99 -5.25,-4.99 -3.3,0 -5.25,2.24 -5.25,4.99 0,2.74 2.14,4.99 5.25,4.99 3.11,0 5.25,-2.25 5.25,-4.99 z m 0.41,16.12 v -9.42 c -1.31,1.93 -4.2,2.5 -6.15,2.5 -5.92,0 -9.33,-4.07 -9.33,-9.2 0,-5.17 3.79,-9.2 9.48,-9.2 2.1,0 4.57,0.85 6,2.82 l 0.3,-2.43 h 4.27 v 24.93 z"
   id="path81"
   inkscape:connector-curvature="0"
   style="fill:#717476;fill-rule:nonzero" /><path
   class="fil1"
   d="m 489.14,227.92 v 9.2 c 0,2.68 1.54,4.71 4.46,4.71 2.82,0 4.73,-2.25 4.73,-4.92 v -8.99 h 4.53 v 17.62 h -4.08 l -0.3,-2.39 c -1.92,1.78 -3.68,2.64 -6.26,2.64 -4.43,0 -7.65,-3.18 -7.65,-8.63 v -9.24 z"
   id="path83"
   inkscape:connector-curvature="0"
   style="fill:#717476;fill-rule:nonzero" /><path
   class="fil1"
   d="m 505.97,245.5 h 4.57 v -17.65 h -4.57 z m 4.98,-22.54 c 0,3.39 -5.39,3.39 -5.39,0 0,-3.39 5.39,-3.39 5.39,0 z"
   id="path85"
   inkscape:connector-curvature="0"
   style="fill:#717476;fill-rule:nonzero" /><path
   class="fil1"
   d="m 525.8,232.59 c -1.32,-1.18 -2.81,-1.57 -4.58,-1.57 -2.17,0 -3.37,0.64 -3.37,1.75 0,1.14 1.09,1.78 3.45,1.93 3.48,0.21 7.91,0.96 7.91,5.63 0,3.1 -2.66,5.78 -7.95,5.78 -2.92,0 -5.85,-0.47 -8.54,-3.14 l 2.24,-3.1 c 1.32,1.39 4.31,2.42 6.38,2.46 1.72,0.03 3.33,-0.82 3.33,-2.11 0,-1.21 -1.05,-1.71 -3.67,-1.85 -3.49,-0.25 -7.65,-1.46 -7.65,-5.46 0,-4.06 4.42,-5.49 7.8,-5.49 2.88,0 5.06,0.54 7.2,2.32 z"
   id="path87"
   inkscape:connector-curvature="0"
   style="fill:#717476;fill-rule:nonzero" /><path
   class="fil1"
   d="m 534.75,236.69 c 0,3.35 2.44,5.35 5.47,5.35 7.2,0 7.2,-10.66 0,-10.66 -3.03,0 -5.47,1.96 -5.47,5.31 z m 11.1,-8.77 h 4.38 v 17.58 h -4.31 l -0.22,-2.57 c -1.05,2.07 -3.94,3.07 -6,3.11 -5.47,0.03 -9.52,-3.18 -9.52,-9.35 0,-6.06 4.23,-9.23 9.63,-9.2 2.48,0 4.84,1.11 5.89,2.86 z"
   id="path89"
   inkscape:connector-curvature="0"
   style="fill:#717476;fill-rule:nonzero" /><path
   class="fil1"
   d="m 573.73,234.66 c -0.3,-2.28 -2.18,-3.42 -4.8,-3.42 -2.47,0 -4.5,1.14 -5.17,3.42 z m -10.05,3.6 c 0.3,2.18 2.29,3.75 5.51,3.75 1.69,0 3.9,-0.61 4.95,-1.64 l 2.92,2.74 c -1.95,1.93 -5.13,2.86 -7.94,2.86 -6.37,0 -10.16,-3.75 -10.16,-9.39 0,-5.34 3.82,-9.19 9.82,-9.19 6.18,0 10.05,3.63 9.33,10.87 z"
   id="path91"
   inkscape:connector-curvature="0"
   style="fill:#717476;fill-rule:nonzero" /><polygon
   class="fil1"
   points="592.04,231.16 606.25,231.16 606.25,235.55 592.04,235.55 592.04,241.19 606.77,241.19 606.77,245.82 587.13,245.82 587.13,220.86 606.77,220.86 606.77,225.42 592.04,225.42 "
   id="polygon93"
   style="fill:#717476;fill-rule:nonzero"
   transform="translate(0.46000001,-0.31999999)" /><polygon
   class="fil1"
   points="622.25,245.82 618.24,239.94 614.23,245.82 608.76,245.82 608.76,245.71 615.2,236.91 609.13,228.38 609.13,228.24 614.6,228.24 618.24,234.2 621.88,228.24 627.35,228.24 627.35,228.38 621.28,236.91 627.72,245.71 627.72,245.82 "
   id="polygon95"
   style="fill:#717476;fill-rule:nonzero"
   transform="translate(0.46000001,-0.31999999)" /><path
   class="fil1"
   d="m 636.01,222.96 v 5 h 5.1 v 3.74 h -5.13 v 7.6 c 0,1.67 0.97,2.49 2.39,2.49 0.72,0 1.54,-0.21 2.22,-0.53 l 1.27,3.71 c -1.31,0.49 -2.4,0.71 -3.79,0.74 -4.01,0.15 -6.63,-2.03 -6.63,-6.41 v -7.6 h -3.45 v -3.74 h 3.45 v -4.53 z"
   id="path97"
   inkscape:connector-curvature="0"
   style="fill:#717476;fill-rule:nonzero" /><path
   class="fil1"
   d="m 657.52,234.66 c -0.3,-2.28 -2.17,-3.42 -4.79,-3.42 -2.48,0 -4.5,1.14 -5.17,3.42 z m -10.04,3.6 c 0.3,2.18 2.29,3.75 5.51,3.75 1.69,0 3.9,-0.61 4.95,-1.64 l 2.92,2.74 c -1.95,1.93 -5.13,2.86 -7.94,2.86 -6.38,0 -10.16,-3.75 -10.16,-9.39 0,-5.34 3.82,-9.19 9.82,-9.19 6.18,0 10.04,3.63 9.33,10.87 z"
   id="path99"
   inkscape:connector-curvature="0"
   style="fill:#717476;fill-rule:nonzero" /><path
   class="fil1"
   d="m 678.1,245.5 v -9.2 c 0,-2.67 -1.54,-4.71 -4.46,-4.71 -2.81,0 -4.72,2.25 -4.72,4.92 v 8.99 h -4.54 v -17.62 h 4.09 l 0.3,2.39 c 1.87,-1.74 3.74,-2.64 6.07,-2.64 4.35,0 7.83,3.11 7.83,8.63 v 9.24 z"
   id="path101"
   inkscape:connector-curvature="0"
   style="fill:#717476;fill-rule:nonzero" /><path
   class="fil1"
   d="m 697.74,232.59 c -1.31,-1.18 -2.82,-1.57 -4.58,-1.57 -2.17,0 -3.37,0.64 -3.37,1.75 0,1.14 1.09,1.78 3.45,1.93 3.48,0.21 7.91,0.96 7.91,5.63 0,3.1 -2.66,5.78 -7.95,5.78 -2.92,0 -5.84,-0.47 -8.54,-3.14 l 2.25,-3.1 c 1.31,1.39 4.31,2.42 6.37,2.46 1.72,0.03 3.33,-0.82 3.33,-2.11 0,-1.21 -1.05,-1.71 -3.67,-1.85 -3.49,-0.25 -7.65,-1.46 -7.65,-5.46 0,-4.06 4.43,-5.49 7.8,-5.49 2.89,0 5.06,0.54 7.2,2.32 z"
   id="path103"
   inkscape:connector-curvature="0"
   style="fill:#717476;fill-rule:nonzero" /><path
   class="fil1"
   d="m 706.69,236.69 c 0,3.35 2.44,5.35 5.47,5.35 7.2,0 7.2,-10.66 0,-10.66 -3.03,0 -5.47,1.96 -5.47,5.31 z m -0.03,-13.51 c 0.89,-2.11 2.36,-3.61 4.83,-3.07 1.76,0.39 3.49,2.25 4.65,0.04 l 3,1.35 c -1.09,2.75 -2.96,3.57 -4.73,3.14 -1.83,-0.5 -3.44,-2.6 -4.91,0 z m 11.13,4.74 h 4.38 v 17.58 h -4.31 l -0.22,-2.57 c -1.05,2.07 -3.94,3.07 -6,3.11 -5.47,0.03 -9.52,-3.18 -9.52,-9.35 0,-6.06 4.24,-9.23 9.63,-9.2 2.48,0 4.84,1.11 5.89,2.86 z"
   id="path105"
   inkscape:connector-curvature="0"
   style="fill:#717476;fill-rule:nonzero" /><path
   class="fil1"
   d="m 728.8,236.73 c 0,2.67 1.69,5.17 5.03,5.17 3.33,0 5.02,-2.5 5.02,-5.17 0,-2.64 -1.95,-5.21 -5.02,-5.21 -3.3,0 -5.03,2.57 -5.03,5.21 z m 14.66,0 c 0,5.06 -3.64,9.16 -9.63,9.16 -6,0 -9.6,-4.1 -9.6,-9.16 0,-5.03 3.67,-9.17 9.56,-9.17 5.88,0 9.67,4.14 9.67,9.17 z"
   id="path107"
   inkscape:connector-curvature="0"
   style="fill:#717476;fill-rule:nonzero" /><polygon
   class="fil2"
   points="229,90.16 40.94,101.22 40.94,25.54 229,25.54 "
   id="polygon109"
   style="fill:#ee9545"
   transform="translate(0.46000001,-0.31999999)" /><rect
   style="fill:none"
   id="rect126"
   height="293.75"
   width="800"
   y="0"
   x="0"
   class="fil10" /><path
   class="fil3"
   d="m 172.06,87.2 -31.42,2.01 -0.58,0.13 c -0.86,0.3 -1.08,0.19 -1.08,0.19 -1.87,-0.76 -2.15,-9.41 4.01,-22.55 6.21,-13.16 13.2,-18.79 15.08,-18.03 0,0 0.23,0.11 0.59,0.89 l 19.91,23.51 z M 41.4,25.22 v 60.56 l 95.82,7.2 0.1,0.04 c 1.07,0.46 2.32,0.44 3.79,0 L 197.39,89.4 162.25,48.08 c -0.63,-1.33 -1.46,-2.17 -2.53,-2.63 -0.07,-0.02 -0.1,-0.01 -0.16,0 L 110.5,25.22 Z m 2.82,18.05 c 1.68,-1.82 3.32,-4.05 4.87,-6.47 l 83.7,34.48 c -0.87,2.74 -1.52,5.36 -1.86,7.75 z"
   id="path111"
   inkscape:connector-curvature="0"
   style="fill:#e28b43;fill-rule:nonzero" /><polygon
   class="fil4"
   points="229,183.53 40.94,172.28 40.94,109.12 229,98.38 "
   id="polygon113"
   style="fill:#246890"
   transform="translate(0.46000001,-0.31999999)" /><polygon
   class="fil5"
   points="40.94,172.28 40.94,165.84 40.94,172.28 43.95,172.46 "
   id="polygon115"
   style="fill:#39759a;fill-rule:nonzero"
   transform="translate(0.46000001,-0.31999999)" /><path
   class="fil6"
   d="m 157.38,178.9 -22.99,-1.38 -29.77,-1.78 v 0 c -1.86,-1.03 -3.69,-2.15 -5.46,-3.39 -6.53,-4.55 -11.8,-10.13 -15.75,-16.33 -6.2,2.39 -11.14,8.06 -17.26,10.65 l -6.47,6.38 -15.27,-0.91 -3.01,-0.18 v -6.44 l 13.26,-18.43 c 6.74,-2.86 15.69,-2.51 22.16,-5.76 -3.18,-11.28 -2.69,-23.42 1.75,-34.65 l 12.96,-0.74 c -11.57,20.2 -5.93,45.92 14.12,59.88 8.73,6.08 18.86,9.01 28.91,9.01 15.09,0 29.99,-6.61 39.59,-19.09 12.79,-16.62 12.31,-38.62 0.42,-54.55 l 12.64,-0.72 c 4.41,8.09 6.69,17.06 6.7,26.09 v 0.1 c 0,11.62 -3.74,23.35 -11.5,33.44 -6.64,8.63 -15.37,14.95 -25.03,18.8 z"
   id="path117"
   inkscape:connector-curvature="0"
   style="fill:#25638d;fill-rule:nonzero" /><polygon
   class="fil7"
   points="229,264.11 40.94,264.11 40.94,179.92 229,192.87 "
   id="polygon119"
   style="fill:#5b5789"
   transform="translate(0.46000001,-0.31999999)" /><path
   class="fil8"
   d="m 160.84,253.56 c -1.46,0.4 -2.33,1.81 -2,3.22 0.67,2.77 1.32,5.08 1.93,7.01 h 6.02 c -0.54,-1.53 -1.13,-3.44 -1.75,-5.77 16.69,-5.39 27.31,-16.92 27.31,-29.92 0,-18.18 -21.23,-32.98 -47.34,-32.98 -0.49,0 -0.97,0.02 -1.46,0.04 -1.24,-3.13 -3.07,-6.12 -5.51,-8.9 l -8.7,-0.6 c 1.03,0.82 1.99,1.68 2.89,2.58 5.19,5.18 7.75,11.24 7.44,17.56 -0.87,17 -19.99,30.68 -44.48,31.83 -1.12,0.05 -2.1,0.72 -2.52,1.7 -2.79,6.62 -14.13,10.98 -21.36,12.86 1.3,-2.83 2.77,-7.12 4.33,-13.65 0.34,-1.4 -0.53,-2.82 -1.99,-3.23 -18.04,-4.94 -29.68,-16.48 -29.68,-29.38 0,-10.08 7.1,-19.07 18.15,-24.9 l -9.25,-0.64 c -5.01,3.69 -8.94,8.08 -11.47,12.93 v 25.33 c 4.79,9.26 14.74,16.91 28.05,21.13 -2.42,9.31 -4.5,12.81 -5.27,13.32 -2.31,1.1 -1.97,2.99 -1.87,3.36 0.12,0.52 0.74,2.21 3.31,2.21 3.55,0 25.06,-4.37 31.57,-15.71 1.63,-0.1 3.25,-0.28 4.83,-0.49 6.85,10.31 21.14,17.25 38.07,18.43 0.6,1.03 1.35,1.99 2.2,2.89 h 9.07 c -3.1,-1.76 -5.69,-3.94 -6.77,-6.52 -0.42,-0.98 -1.41,-1.65 -2.53,-1.7 -14.56,-0.68 -27.02,-5.89 -33.64,-13.87 22.01,-4.82 37.56,-19.5 37.56,-36.06 0,-1.69 -0.16,-3.38 -0.5,-5.07 22.73,0.18 41.14,12.45 41.14,27.53 0,11.16 -10.12,21.17 -25.78,25.46 z m -95.22,2.38 -0.03,-2.71 h 0.03 z"
   id="path121"
   inkscape:connector-curvature="0"
   style="fill:#4f5083;fill-rule:nonzero" /><path
   class="fil9"
   d="m 115.78,263.79 c 7.13,-2.3 14.28,-5.32 22.2,-8.68 7.91,-3.36 16.63,-7.31 23.53,-11.26 6.9,-3.94 11.66,-7.42 17.44,-11.98 5.78,-4.56 12.48,-9.8 16.94,-15.6 4.45,-5.81 7.42,-14.1 8.82,-19.4 1.39,-5.3 2.3,-7.39 2.33,-11.29 0.05,-7.8 -4.12,-14.47 -7.61,-19.79 -3.48,-5.31 -8.45,-10.35 -13.17,-14.54 -4.72,-4.19 -6.74,-6.69 -13.18,-10.8 -6.45,-4.11 -14.84,-8.58 -20.41,-11.4 -5.56,-2.83 -9.9,-4.48 -15.29,-7.38 -5.39,-2.9 -9.55,-6.09 -13.2,-8.85 -3.65,-2.75 -4.93,-5.05 -6.6,-8.2 -1.68,-3.15 -3.04,-6.79 -3.3,-10.05 -0.64,-7.86 2.21,-15.16 6.2,-20.55 3.99,-5.39 6.47,-8.77 12.54,-12.78 6.08,-4.01 15.81,-7.94 22.53,-10.5 6.72,-2.56 11.95,-2.45 18.48,-4.03 5.39,-1.31 10.68,-0.88 15.88,-1.56 4.38,-0.57 8.69,-0.94 12.93,-1.13 5.01,-0.22 9.92,-0.74 14.74,-0.32 4.02,0.36 7.98,0.77 11.88,1.2 v -7.74 c -2.82,-0.47 -5.85,-0.81 -9.03,-1.19 -4.6,-0.56 -10.99,-1.23 -15.63,-1.55 -3.61,-0.25 -7.26,-0.96 -10.86,-1.09 -5.21,-0.19 -10.31,0.28 -15.05,0.37 -10.11,0.19 -28.2,0.74 -46.58,6.49 -8.08,2.54 -16.18,6.89 -23.43,10.9 -7.25,4.01 -13.29,8 -17.49,11.27 -6.69,5.21 -9.66,8.85 -12.51,12.71 -5.81,7.9 -8.74,25.56 -7.16,34.86 1.33,7.81 7.3,15.79 13.87,22.78 2.97,3.16 6.09,6.11 9.14,8.76 5.15,4.47 11.47,8.05 15.1,10.23 10.53,6.32 11.16,7.73 17.18,11.68 6.03,3.94 12.54,9.49 16.41,14.82 2.62,3.6 4.39,7.57 5.02,12.11 0.28,2 0.45,2.56 0.08,5.97 -0.37,3.42 -3.11,10.01 -5.82,14.26 -2.72,4.26 -3.72,6.01 -8.73,11.01 -3.07,3.06 -7.45,6.68 -13.08,10.32 -3.55,2.3 -5.89,4.6 -9.23,6.77 -8.62,5.62 -19.39,12.42 -27.86,16.52 -8.48,4.1 -14.78,6.42 -19.98,8.63 z"
   id="path123"
   inkscape:connector-curvature="0"
   style="fill:#fefefe" />
<path
   inkscape:connector-curvature="0"
   id="path261"
   style="font-style:normal;font-variant:normal;font-weight:bold;font-stretch:normal;font-size:medium;line-height:1.25;font-family:Umpush;-inkscape-font-specification:'Umpush Bold';letter-spacing:0px;word-spacing:0px;fill:#3c3f40;fill-opacity:1;stroke:none;stroke-width:3.67844796"
   d="m 309.45805,57.81 q 14.87185,0 23.85245,8.118449 8.98056,8.11845 8.98056,21.122338 0,6.609711 -2.65823,12.932043 -2.58642,6.25049 -6.60973,11.13593 -4.0233,4.88544 -9.41164,10.05825 -5.31653,5.10097 -10.27379,9.19612 -4.88546,4.09515 -9.84272,8.98059 -4.88546,4.88544 -7.6874,9.12427 h 46.62719 v 15.80584 h -69.61749 q 0.71847,-9.26797 5.24466,-17.88933 4.59806,-8.62137 10.41751,-14.44079 3.66406,-3.73592 9.55532,-8.76505 5.96313,-5.10097 10.13011,-8.83689 4.23882,-3.73593 8.40581,-8.26214 4.16702,-4.52622 6.39421,-9.339811 2.22715,-4.885438 2.22715,-9.986411 0,-5.67573 -4.95726,-9.411654 -4.9573,-3.735923 -11.06407,-3.735923 -7.68741,0 -11.99807,4.310681 -4.3107,4.238836 -4.6699,11.710684 H 275.26 q 0,-14.440782 9.3398,-23.133989 Q 293.93959,57.81 309.45805,57.81 Z" /></svg>