<?xml version="1.0" encoding="UTF-8" standalone="no"?>
<!-- Creator: CorelDRAW 2017 -->

<svg
   xmlns:dc="http://purl.org/dc/elements/1.1/"
   xmlns:cc="http://creativecommons.org/ns#"
   xmlns:rdf="http://www.w3.org/1999/02/22-rdf-syntax-ns#"
   xmlns:svg="http://www.w3.org/2000/svg"
   xmlns="http://www.w3.org/2000/svg"
   xmlns:sodipodi="http://sodipodi.sourceforge.net/DTD/sodipodi-0.dtd"
   xmlns:inkscape="http://www.inkscape.org/namespaces/inkscape"
   xml:space="preserve"
   width="243.10449"
   height="293.67999"
   version="1.1"
   style="clip-rule:evenodd;fill-rule:evenodd;image-rendering:optimizeQuality;shape-rendering:geometricPrecision;text-rendering:geometricPrecision"
   viewBox="0 0 243.10449 293.67999"
   id="svg129"
   sodipodi:docname="siepe.svg"
   inkscape:version="0.92.3 (2405546, 2018-03-11)"><metadata
   id="metadata133"><rdf:RDF><cc:Work
       rdf:about=""><dc:format>image/svg+xml</dc:format><dc:type
         rdf:resource="http://purl.org/dc/dcmitype/StillImage" /><dc:title></dc:title></cc:Work></rdf:RDF></metadata><sodipodi:namedview
   pagecolor="#ffffff"
   bordercolor="#666666"
   borderopacity="1"
   objecttolerance="10"
   gridtolerance="10"
   guidetolerance="10"
   inkscape:pageopacity="0"
   inkscape:pageshadow="2"
   inkscape:window-width="1920"
   inkscape:window-height="1025"
   id="namedview131"
   showgrid="false"
   showguides="true"
   inkscape:guide-bbox="true"
   fit-margin-top="0"
   fit-margin-left="0"
   fit-margin-right="0"
   fit-margin-bottom="0"
   inkscape:zoom="1.2833988"
   inkscape:cx="498.00908"
   inkscape:cy="156.96182"
   inkscape:window-x="0"
   inkscape:window-y="0"
   inkscape:window-maximized="1"
   inkscape:current-layer="svg129" />
 <defs
   id="defs4">
  <style
   type="text/css"
   id="style2">
   <![CDATA[
    .fil10 {fill:none}
    .fil4 {fill:#246890}
    .fil7 {fill:#5B5789}
    .fil2 {fill:#EE9545}
    .fil9 {fill:#FEFEFE}
    .fil6 {fill:#25638D;fill-rule:nonzero}
    .fil5 {fill:#39759A;fill-rule:nonzero}
    .fil0 {fill:#3C3F40;fill-rule:nonzero}
    .fil8 {fill:#4F5083;fill-rule:nonzero}
    .fil1 {fill:#717476;fill-rule:nonzero}
    .fil3 {fill:#E28B43;fill-rule:nonzero}
   ]]>
  </style>
 
  
  
  
 
   
   
   
   
   
   
   
   
   
   
   
   
   
   
   
   
   
   
   
   
   
   
   
   
   
   
   
   
   
   
   
   
   
   
   
   
   
   
   
   
   
   
   
   
   
   
   
   
   
   
   
   
   
   
   
   
   
   
   
  </defs>
 <rect
   style="fill:none"
   id="rect126"
   height="293.75"
   width="800"
   y="0"
   x="0"
   class="fil10" /><g
   id="g77"
   transform="matrix(1.1077247,0,0,1.1077247,-28.459803,-12.716817)"><polygon
     transform="translate(0.46000001,-0.31999999)"
     style="fill:#ee9545"
     id="polygon109"
     points="40.94,25.54 229,25.54 229,90.16 40.94,101.22 "
     class="fil2" /><path
     style="fill:#e28b43;fill-rule:nonzero"
     inkscape:connector-curvature="0"
     id="path111"
     d="m 172.06,87.2 -31.42,2.01 -0.58,0.13 c -0.86,0.3 -1.08,0.19 -1.08,0.19 -1.87,-0.76 -2.15,-9.41 4.01,-22.55 6.21,-13.16 13.2,-18.79 15.08,-18.03 0,0 0.23,0.11 0.59,0.89 l 19.91,23.51 z M 41.4,25.22 v 60.56 l 95.82,7.2 0.1,0.04 c 1.07,0.46 2.32,0.44 3.79,0 L 197.39,89.4 162.25,48.08 c -0.63,-1.33 -1.46,-2.17 -2.53,-2.63 -0.07,-0.02 -0.1,-0.01 -0.16,0 L 110.5,25.22 Z m 2.82,18.05 c 1.68,-1.82 3.32,-4.05 4.87,-6.47 l 83.7,34.48 c -0.87,2.74 -1.52,5.36 -1.86,7.75 z"
     class="fil3" /><polygon
     transform="translate(0.46000001,-0.31999999)"
     style="fill:#246890"
     id="polygon113"
     points="40.94,109.12 229,98.38 229,183.53 40.94,172.28 "
     class="fil4" /><polygon
     transform="translate(0.46000001,-0.31999999)"
     style="fill:#39759a;fill-rule:nonzero"
     id="polygon115"
     points="40.94,172.28 43.95,172.46 40.94,172.28 40.94,165.84 "
     class="fil5" /><path
     style="fill:#25638d;fill-rule:nonzero"
     inkscape:connector-curvature="0"
     id="path117"
     d="m 157.38,178.9 -22.99,-1.38 -29.77,-1.78 v 0 c -1.86,-1.03 -3.69,-2.15 -5.46,-3.39 -6.53,-4.55 -11.8,-10.13 -15.75,-16.33 -6.2,2.39 -11.14,8.06 -17.26,10.65 l -6.47,6.38 -15.27,-0.91 -3.01,-0.18 v -6.44 l 13.26,-18.43 c 6.74,-2.86 15.69,-2.51 22.16,-5.76 -3.18,-11.28 -2.69,-23.42 1.75,-34.65 l 12.96,-0.74 c -11.57,20.2 -5.93,45.92 14.12,59.88 8.73,6.08 18.86,9.01 28.91,9.01 15.09,0 29.99,-6.61 39.59,-19.09 12.79,-16.62 12.31,-38.62 0.42,-54.55 l 12.64,-0.72 c 4.41,8.09 6.69,17.06 6.7,26.09 v 0.1 c 0,11.62 -3.74,23.35 -11.5,33.44 -6.64,8.63 -15.37,14.95 -25.03,18.8 z"
     class="fil6" /><polygon
     transform="translate(0.46000001,-0.31999999)"
     style="fill:#5b5789"
     id="polygon119"
     points="40.94,179.92 229,192.87 229,264.11 40.94,264.11 "
     class="fil7" /><path
     style="fill:#4f5083;fill-rule:nonzero"
     inkscape:connector-curvature="0"
     id="path121"
     d="m 160.84,253.56 c -1.46,0.4 -2.33,1.81 -2,3.22 0.67,2.77 1.32,5.08 1.93,7.01 h 6.02 c -0.54,-1.53 -1.13,-3.44 -1.75,-5.77 16.69,-5.39 27.31,-16.92 27.31,-29.92 0,-18.18 -21.23,-32.98 -47.34,-32.98 -0.49,0 -0.97,0.02 -1.46,0.04 -1.24,-3.13 -3.07,-6.12 -5.51,-8.9 l -8.7,-0.6 c 1.03,0.82 1.99,1.68 2.89,2.58 5.19,5.18 7.75,11.24 7.44,17.56 -0.87,17 -19.99,30.68 -44.48,31.83 -1.12,0.05 -2.1,0.72 -2.52,1.7 -2.79,6.62 -14.13,10.98 -21.36,12.86 1.3,-2.83 2.77,-7.12 4.33,-13.65 0.34,-1.4 -0.53,-2.82 -1.99,-3.23 -18.04,-4.94 -29.68,-16.48 -29.68,-29.38 0,-10.08 7.1,-19.07 18.15,-24.9 l -9.25,-0.64 c -5.01,3.69 -8.94,8.08 -11.47,12.93 v 25.33 c 4.79,9.26 14.74,16.91 28.05,21.13 -2.42,9.31 -4.5,12.81 -5.27,13.32 -2.31,1.1 -1.97,2.99 -1.87,3.36 0.12,0.52 0.74,2.21 3.31,2.21 3.55,0 25.06,-4.37 31.57,-15.71 1.63,-0.1 3.25,-0.28 4.83,-0.49 6.85,10.31 21.14,17.25 38.07,18.43 0.6,1.03 1.35,1.99 2.2,2.89 h 9.07 c -3.1,-1.76 -5.69,-3.94 -6.77,-6.52 -0.42,-0.98 -1.41,-1.65 -2.53,-1.7 -14.56,-0.68 -27.02,-5.89 -33.64,-13.87 22.01,-4.82 37.56,-19.5 37.56,-36.06 0,-1.69 -0.16,-3.38 -0.5,-5.07 22.73,0.18 41.14,12.45 41.14,27.53 0,11.16 -10.12,21.17 -25.78,25.46 z m -95.22,2.38 -0.03,-2.71 h 0.03 z"
     class="fil8" /><path
     style="fill:#fefefe"
     inkscape:connector-curvature="0"
     id="path123"
     d="m 115.78,263.79 c 7.13,-2.3 14.28,-5.32 22.2,-8.68 7.91,-3.36 16.63,-7.31 23.53,-11.26 6.9,-3.94 11.66,-7.42 17.44,-11.98 5.78,-4.56 12.48,-9.8 16.94,-15.6 4.45,-5.81 7.42,-14.1 8.82,-19.4 1.39,-5.3 2.3,-7.39 2.33,-11.29 0.05,-7.8 -4.12,-14.47 -7.61,-19.79 -3.48,-5.31 -8.45,-10.35 -13.17,-14.54 -4.72,-4.19 -6.74,-6.69 -13.18,-10.8 -6.45,-4.11 -14.84,-8.58 -20.41,-11.4 -5.56,-2.83 -9.9,-4.48 -15.29,-7.38 -5.39,-2.9 -9.55,-6.09 -13.2,-8.85 -3.65,-2.75 -4.93,-5.05 -6.6,-8.2 -1.68,-3.15 -3.04,-6.79 -3.3,-10.05 -0.64,-7.86 2.21,-15.16 6.2,-20.55 3.99,-5.39 6.47,-8.77 12.54,-12.78 6.08,-4.01 15.81,-7.94 22.53,-10.5 6.72,-2.56 11.95,-2.45 18.48,-4.03 5.39,-1.31 10.68,-0.88 15.88,-1.56 4.38,-0.57 8.69,-0.94 12.93,-1.13 5.01,-0.22 9.92,-0.74 14.74,-0.32 4.02,0.36 7.98,0.77 11.88,1.2 v -7.74 c -2.82,-0.47 -5.85,-0.81 -9.03,-1.19 -4.6,-0.56 -10.99,-1.23 -15.63,-1.55 -3.61,-0.25 -7.26,-0.96 -10.86,-1.09 -5.21,-0.19 -10.31,0.28 -15.05,0.37 -10.11,0.19 -28.2,0.74 -46.58,6.49 -8.08,2.54 -16.18,6.89 -23.43,10.9 -7.25,4.01 -13.29,8 -17.49,11.27 -6.69,5.21 -9.66,8.85 -12.51,12.71 -5.81,7.9 -8.74,25.56 -7.16,34.86 1.33,7.81 7.3,15.79 13.87,22.78 2.97,3.16 6.09,6.11 9.14,8.76 5.15,4.47 11.47,8.05 15.1,10.23 10.53,6.32 11.16,7.73 17.18,11.68 6.03,3.94 12.54,9.49 16.41,14.82 2.62,3.6 4.39,7.57 5.02,12.11 0.28,2 0.45,2.56 0.08,5.97 -0.37,3.42 -3.11,10.01 -5.82,14.26 -2.72,4.26 -3.72,6.01 -8.73,11.01 -3.07,3.06 -7.45,6.68 -13.08,10.32 -3.55,2.3 -5.89,4.6 -9.23,6.77 -8.62,5.62 -19.39,12.42 -27.86,16.52 -8.48,4.1 -14.78,6.42 -19.98,8.63 z"
     class="fil9" /></g>
</svg>